<!DOCTYPE svg PUBLIC "-//W3C//DTD SVG 1.1//EN" "http://www.w3.org/Graphics/SVG/1.1/DTD/svg11.dtd">
<!-- Uploaded to: SVG Repo, www.svgrepo.com, Transformed by: SVG Repo Mixer Tools -->
<svg fill="#8B0000" version="1.1" id="Capa_1" xmlns="http://www.w3.org/2000/svg" xmlns:xlink="http://www.w3.org/1999/xlink" width="800px" height="800px" viewBox="0 0 34.809 34.809" xml:space="preserve">
<g id="SVGRepo_bgCarrier" stroke-width="0"/>
<g id="SVGRepo_tracerCarrier" stroke-linecap="round" stroke-linejoin="round"/>
<g id="SVGRepo_iconCarrier"> <g> <g> <path d="M29.538,12.856c0.012-0.151-0.025-0.731-0.278-1.01c-0.252-0.276-0.528-0.516-0.771-0.555 c-0.243-0.04-0.174-0.516-0.376-0.561c-0.203-0.045,0.089-0.521-0.101-0.635c-0.188-0.114-1.251-0.799-1.462-0.934 c-0.21-0.133-0.353-0.013-0.542,0.089c-0.188,0.101-1.074-0.289-1.159-0.312c-0.085-0.023-0.014-0.258-0.024-0.458 c-0.012-0.199,0.037-0.327,0.268-0.468c0.23-0.142,0.273-0.188,0.262-0.388c-0.014-0.203,0.227-0.618,0.15-0.72 c-0.076-0.101-0.155-0.028-0.156-0.216C25.348,6.5,25.371,5.755,25.12,5.567c-0.252-0.19-0.484-0.792-1.329-0.755 c-0.844,0.038-1.386,0.807-1.373,1.06c0.012,0.251-0.139,0.869-0.062,1.107c0.074,0.239,0.101,1.047,0.233,1.25 c0.134,0.205,0.438,0.385,0.572,0.502c0.135,0.119,0.202,0.605,0.151,0.77c-0.051,0.163-0.529,0.013-0.668-0.114 c-0.14-0.126-0.164-0.313-0.482-0.445c-0.318-0.129-0.406-0.196-0.61-0.295c-0.206-0.1-0.271,0.027-0.271,0.027 s-0.54-0.312-0.753-0.434s-0.303,0.404-0.303,0.404s-0.15-0.605-0.34-0.807c-0.188-0.202-0.616,0.604-0.616,0.604 S18.828,8.076,18.5,7.383c-0.328-0.694-0.756-1.94-0.756-1.94s0.328-0.177,0.428-0.177s0.949,1.311,0.949,1.311 s2.353-1.311,2.025-3.528C20.818,0.832,19.004,0,19.004,0L17.39,2.948c0,0-0.163-0.188-0.277-0.089 C17,2.96,16.5,3.492,16.372,3.628c-0.128,0.135-0.041,0.439,0,0.668s0.25,0.403,0.211,0.542c-0.038,0.139-0.151,0.617-0.075,0.807 c0.075,0.188,0.365,0.037,0.365,0.037s0.718,2.95,0.958,3.164c0.24,0.214,1.172,0.982,1.172,0.982s-0.101,0.643-0.038,1.008 c0.063,0.365,0.427,0.643,0.427,0.643s-0.058,0.116-0.125,0.253C19.2,11.868,19.634,12.4,19.634,12.4s-0.592,0.718-0.58,0.907 c0.012,0.189,1.159,0.163,1.159,0.163s-0.083,0.308-0.188,0.694c-0.105,0.386,1.601,0.302,1.601,0.302s0.228,1.172,0.088,1.55 c-0.139,0.379-1.991,3.174-2.18,3.492c-0.189,0.315,0.719,1.033,0.604,1.409c-0.113,0.38-0.641,1.507-0.87,2.005 s0.832,0.051,0.768,0.567s-0.326,0.908-0.44,1.108c-0.115,0.201,0.467,0.227,0.303,0.365s-0.416,0.314-0.468,0.643 c-0.05,0.328,0.945,0.744,0.857,1.084c-0.088,0.341-0.844,1.916-0.53,2.092c0.162,0.092,0.654,0.012,0.983,0.102 c0.312,0.084,0.504,0.164,0.466,0.34c-0.038,0.178-0.067,0.432-0.101,0.694s0.753-0.063,1.008-0.026 c0.255,0.039,0.164,0.276,0.366,0.354c0.201,0.077-0.076,0.643,0.201,0.809c0.277,0.162,0.47-0.053,0.58-0.14 c0.11-0.088,0.454-0.026,0.454-0.026s0.592,2.319,0.466,2.608c-0.125,0.29-0.386,0.496-0.504,0.847 c-0.096,0.282,0.202,0.49,0.706,0.465c0.504-0.023,1.134-0.354,1.336-0.592c0.201-0.24,0.064-0.287,0.166-0.401 c0.102-0.113,2.166-0.027,2.317-0.317c0.151-0.289-0.189-0.541-0.454-0.844s0.718-0.415,0.618-0.719 c-0.101-0.303-0.29-1.108-0.29-1.108s-0.251-0.604-0.214-0.856c0.038-0.252,0.491-0.049,0.479-0.252 c-0.013-0.201-0.393-0.637-0.504-0.817c-0.112-0.185,0.504-0.379,0.404-0.479c-0.103-0.102-0.266-0.252-0.24-0.492 c0.025-0.238,0.466-0.402,0.403-0.617c-0.063-0.215-0.567-0.907-0.58-1.209c-0.013-0.303,0.501-0.555,0.819-0.907 c0.316-0.353-0.656-1.06-0.656-1.06s-0.188-0.328-0.151-0.617c0.038-0.289,0.309-1.432,0.392-1.814s-0.164-1.373-0.421-1.617 c-0.256-0.244-0.322-0.613-0.397-0.865c-0.122-0.401,0.088-0.504-0.126-0.729c-0.196-0.208-0.983-0.958-1.146-1.286 c-0.164-0.327-0.215-0.958-0.215-0.958l1.374-1.234l1.096-0.781c0,0,0.127,0.239,0.277,0.087c0.151-0.149,0.188-0.201,0.302-0.326 c0.115-0.125-0.113-0.504-0.113-0.504S29.525,13.007,29.538,12.856z"/> <path d="M17.816,25.204c-0.025-0.304-1.283-0.633-1.283-0.633s-0.008-0.737-0.485-1.16c0.225-0.133,0.458-0.458,0.458-0.458 s-0.593-1.349-0.89-1.941c0.494,0.037,0.71,0.897,0.998,0.916c0.288,0.021,0.917,0.072,1.188-0.135 c0.269-0.203-0.199-1.824-0.42-2.09c-0.221-0.264-0.336-1.336-0.686-1.688l0.502-0.68c0,0,0.441,0.006,0.63-0.21 c0.188-0.218,1.188-1.25,1.563-1.646c0.376-0.396-0.242-0.675-0.242-0.675s-0.377-0.395-0.665-0.165 c-0.289,0.23-1.919,2.082-1.919,2.082l-0.572,0.62c0,0-0.476-0.863-0.782-1c-0.306-0.134-2.131-0.475-2.131-0.475 s-0.207-0.779-0.252-0.944c-0.044-0.167,0.042-0.216,0-0.433c-0.095-0.489-0.247-2.506-2.607-1.79 c-1.007,0.306-1.395,1.242-1.077,2.242c0.126,0.397,1.239,1.399,1.239,1.399s-1.529,1.188-2.586,2.368s-2.53,4.314-2.108,4.676 c0.422,0.358,2.074,1.229,2.074,1.229s-1.415,0.55-1.807,0.703c-0.393,0.151-0.761,0.71-0.675,1.169 c0.087,0.462,2.503,4.631,2.701,4.559c0.198-0.07,1.025-0.351,1.025-0.351L9.56,31.2c0,0-0.518,1.032-0.841,1.334 c-0.324,0.304-1.457,0.255-1.547,0.454c-0.09,0.198,0.342,0.771,1.106,0.675c0.764-0.1,2.285-0.708,2.285-0.708 s1.411-0.166,1.45-0.378c0.041-0.21-0.255-1.315-0.612-1.394c-0.358-0.073-2.844-3.812-2.844-3.812s0.576-0.031,0.66-0.163 c0.851,1.249,2.04,0.765,2.04,0.765s0.693,2.412,0.862,2.535c0.28,0.199,1.234,1.015,1.234,1.015s0.33,0.28,0.6,0.513 c0.271,0.23-0.053,1.169,0.126,1.439c0.18,0.269,0.072,0.756,0.377,0.834c0.305,0.078,0.81-0.078,1.107-0.295 c0.296-0.217,0.53-0.287,0.322-0.974c-0.208-0.682-0.461-1.319-0.461-1.319l0.01-0.595l1.343-0.458c0,0,0.18,0.701,0.594,0.565 c0.414-0.134,0.185-0.779,0.185-0.779s0.535-0.128,0.57-0.3c0.037-0.171-0.485-4.314-0.485-4.314S17.855,25.688,17.816,25.204z M8.36,23.25c0,0-0.504-0.492-0.81-0.728c0.486-0.288,1.42-1.693,1.673-1.808c0.252,0.188,0.702,1.537,0.863,1.618 C8.485,22.809,8.36,23.25,8.36,23.25z"/> </g> </g> </g>
</svg>